<svg width="16" height="17" viewBox="0 0 16 17" fill="none" xmlns="http://www.w3.org/2000/svg">
<path d="M14 6.66669H10V2.66669C10 2.13625 9.78929 1.62755 9.41421 1.25247C9.03914 0.877401 8.53043 0.666687 8 0.666687C7.46957 0.666687 6.96086 0.877401 6.58579 1.25247C6.21071 1.62755 6 2.13625 6 2.66669L6.071 6.66669H2C1.46957 6.66669 0.960859 6.8774 0.585786 7.25247C0.210714 7.62755 0 8.13625 0 8.66669C0 9.19712 0.210714 9.70583 0.585786 10.0809C0.960859 10.456 1.46957 10.6667 2 10.6667L6.071 10.5957L6 14.6667C6 15.1971 6.21071 15.7058 6.58579 16.0809C6.96086 16.456 7.46957 16.6667 8 16.6667C8.53043 16.6667 9.03914 16.456 9.41421 16.0809C9.78929 15.7058 10 15.1971 10 14.6667V10.5957L14 10.6667C14.5304 10.6667 15.0391 10.456 15.4142 10.0809C15.7893 9.70583 16 9.19712 16 8.66669C16 8.13625 15.7893 7.62755 15.4142 7.25247C15.0391 6.8774 14.5304 6.66669 14 6.66669Z" fill="white"/>
</svg>
