<svg width="131" height="142" viewBox="0 0 131 142" fill="none" xmlns="http://www.w3.org/2000/svg">
<rect y="0.887329" width="131" height="140.225" rx="65.5" fill="#F9F5FF"/>
<path d="M91.7003 102.551V95.5394C91.7003 91.8204 90.3201 88.2537 87.8634 85.6239C85.4067 82.9942 82.0746 81.5168 78.6003 81.5168H52.4003C48.926 81.5168 45.5939 82.9942 43.1372 85.6239C40.6805 88.2537 39.3003 91.8204 39.3003 95.5394V102.551M78.6003 53.4718C78.6003 61.2162 72.7352 67.4943 65.5003 67.4943C58.2654 67.4943 52.4003 61.2162 52.4003 53.4718C52.4003 45.7273 58.2654 39.4492 65.5003 39.4492C72.7352 39.4492 78.6003 45.7273 78.6003 53.4718Z" stroke="#7F56D9" stroke-width="2" stroke-linecap="round" stroke-linejoin="round"/>
</svg>
