<svg width="240" height="241" viewBox="0 0 240 241" fill="none" xmlns="http://www.w3.org/2000/svg">
<path d="M120 23C66 23 22.5 66.5 22.5 120.5C22.5 174.5 66 218 120 218C174 218 217.5 174.5 217.5 120.5C217.5 110 216.09 99.545 212.34 89.795L200.16 101.75C201.66 107.75 202.507 113.75 202.507 120.5C202.507 166.25 165.757 203 120.007 203C74.2575 203 37.5 166.25 37.5 120.5C37.5 74.75 74.25 38 120 38C142.5 38 162.705 46.955 176.955 61.205L187.5 50.66C170.25 33.41 146.25 23 120 23ZM204.6 55.1L120 139.722L87.9 107.622L77.1 118.4L114.6 155.9L120 161.045L125.4 155.893L215.4 65.8925L204.6 55.0925V55.1Z" fill="#EF4E25"/>
</svg>
