<svg width="72" height="72" viewBox="0 0 72 72" fill="none" xmlns="http://www.w3.org/2000/svg">
<rect width="72" height="72" rx="10.8" fill="white"/>
<path d="M38.595 49.4999C38.3313 49.9545 37.9528 50.3319 37.4973 50.5942C37.0419 50.8565 36.5256 50.9946 36 50.9946C35.4744 50.9946 34.9581 50.8565 34.5027 50.5942C34.0472 50.3319 33.6687 49.9545 33.405 49.4999M45 29.9999C45 27.6129 44.0518 25.3237 42.364 23.6359C40.6761 21.9481 38.3869 20.9999 36 20.9999C33.6131 20.9999 31.3239 21.9481 29.636 23.6359C27.9482 25.3237 27 27.6129 27 29.9999C27 40.4999 22.5 43.4999 22.5 43.4999H49.5C49.5 43.4999 45 40.4999 45 29.9999Z" stroke="#717680" stroke-width="3" stroke-linecap="round" stroke-linejoin="round"/>
</svg>
