<svg width="41" height="40" viewBox="0 0 41 40" fill="none" xmlns="http://www.w3.org/2000/svg">
<path d="M13 15H14.6667M14.6667 15H28M14.6667 15V26.6666C14.6667 27.1087 14.8423 27.5326 15.1548 27.8451C15.4674 28.1577 15.8913 28.3333 16.3333 28.3333H24.6667C25.1087 28.3333 25.5326 28.1577 25.8452 27.8451C26.1577 27.5326 26.3333 27.1087 26.3333 26.6666V15H14.6667ZM17.1667 15V13.3333C17.1667 12.8913 17.3423 12.4673 17.6548 12.1548C17.9674 11.8422 18.3913 11.6666 18.8333 11.6666H22.1667C22.6087 11.6666 23.0326 11.8422 23.3452 12.1548C23.6577 12.4673 23.8333 12.8913 23.8333 13.3333V15M18.8333 19.1666V24.1666M22.1667 19.1666V24.1666" stroke="#F20307" stroke-width="1.66667" stroke-linecap="round" stroke-linejoin="round"/>
</svg>
